<svg width="155" height="81" viewBox="0 0 155 81" fill="none" xmlns="http://www.w3.org/2000/svg">
<path d="M23.2 8.6V31H18.016V21.816H7.84V31H2.656V8.6H7.84V17.432H18.016V8.6H23.2ZM36.3398 31.256C34.5264 31.256 32.8944 30.8827 31.4438 30.136C30.0144 29.368 28.8944 28.312 28.0838 26.968C27.2731 25.624 26.8678 24.0987 26.8678 22.392C26.8678 20.6853 27.2731 19.16 28.0838 17.816C28.8944 16.472 30.0144 15.4267 31.4438 14.68C32.8944 13.912 34.5264 13.528 36.3398 13.528C38.1531 13.528 39.7744 13.912 41.2038 14.68C42.6331 15.4267 43.7531 16.472 44.5638 17.816C45.3744 19.16 45.7798 20.6853 45.7798 22.392C45.7798 24.0987 45.3744 25.624 44.5638 26.968C43.7531 28.312 42.6331 29.368 41.2038 30.136C39.7744 30.8827 38.1531 31.256 36.3398 31.256ZM36.3398 27.16C37.6198 27.16 38.6651 26.7333 39.4758 25.88C40.3078 25.0053 40.7238 23.8427 40.7238 22.392C40.7238 20.9413 40.3078 19.7893 39.4758 18.936C38.6651 18.0613 37.6198 17.624 36.3398 17.624C35.0598 17.624 34.0038 18.0613 33.1718 18.936C32.3398 19.7893 31.9238 20.9413 31.9238 22.392C31.9238 23.8427 32.3398 25.0053 33.1718 25.88C34.0038 26.7333 35.0598 27.16 36.3398 27.16ZM76.2958 13.784L70.0558 31H65.2558L61.3838 20.312L57.3838 31H52.5838L46.3758 13.784H51.0798L55.1438 25.432L59.3678 13.784H63.5918L67.6878 25.432L71.8798 13.784H76.2958ZM102.783 26.2H92.383L90.399 31H85.087L95.071 8.6H100.191L110.207 31H104.767L102.783 26.2ZM101.151 22.264L97.599 13.688L94.047 22.264H101.151ZM122.355 13.528C123.955 13.528 125.406 13.9013 126.707 14.648C128.03 15.3733 129.064 16.408 129.811 17.752C130.558 19.0747 130.931 20.6213 130.931 22.392C130.931 24.1627 130.558 25.72 129.811 27.064C129.064 28.3867 128.03 29.4213 126.707 30.168C125.406 30.8933 123.955 31.256 122.355 31.256C120.158 31.256 118.43 30.5627 117.171 29.176V37.208H112.179V13.784H116.947V15.768C118.184 14.2747 119.987 13.528 122.355 13.528ZM121.491 27.16C122.771 27.16 123.816 26.7333 124.627 25.88C125.459 25.0053 125.875 23.8427 125.875 22.392C125.875 20.9413 125.459 19.7893 124.627 18.936C123.816 18.0613 122.771 17.624 121.491 17.624C120.211 17.624 119.155 18.0613 118.323 18.936C117.512 19.7893 117.107 20.9413 117.107 22.392C117.107 23.8427 117.512 25.0053 118.323 25.88C119.155 26.7333 120.211 27.16 121.491 27.16ZM144.449 13.528C146.049 13.528 147.499 13.9013 148.801 14.648C150.123 15.3733 151.158 16.408 151.905 17.752C152.651 19.0747 153.025 20.6213 153.025 22.392C153.025 24.1627 152.651 25.72 151.905 27.064C151.158 28.3867 150.123 29.4213 148.801 30.168C147.499 30.8933 146.049 31.256 144.449 31.256C142.251 31.256 140.523 30.5627 139.265 29.176V37.208H134.273V13.784H139.041V15.768C140.278 14.2747 142.081 13.528 144.449 13.528ZM143.585 27.16C144.865 27.16 145.91 26.7333 146.721 25.88C147.553 25.0053 147.969 23.8427 147.969 22.392C147.969 20.9413 147.553 19.7893 146.721 18.936C145.91 18.0613 144.865 17.624 143.585 17.624C142.305 17.624 141.249 18.0613 140.417 18.936C139.606 19.7893 139.201 20.9413 139.201 22.392C139.201 23.8427 139.606 25.0053 140.417 25.88C141.249 26.7333 142.305 27.16 143.585 27.16Z" fill="#15BE30"/>
<path d="M50.512 50.6L43.184 73H37.616L32.688 57.832L27.6 73H22.064L14.704 50.6H20.08L25.136 66.344L30.416 50.6H35.216L40.336 66.472L45.552 50.6H50.512ZM59.9648 73.256C58.1514 73.256 56.5194 72.8827 55.0688 72.136C53.6394 71.368 52.5194 70.312 51.7088 68.968C50.8981 67.624 50.4928 66.0987 50.4928 64.392C50.4928 62.6853 50.8981 61.16 51.7088 59.816C52.5194 58.472 53.6394 57.4267 55.0688 56.68C56.5194 55.912 58.1514 55.528 59.9648 55.528C61.7781 55.528 63.3994 55.912 64.8288 56.68C66.2581 57.4267 67.3781 58.472 68.1888 59.816C68.9994 61.16 69.4048 62.6853 69.4048 64.392C69.4048 66.0987 68.9994 67.624 68.1888 68.968C67.3781 70.312 66.2581 71.368 64.8288 72.136C63.3994 72.8827 61.7781 73.256 59.9648 73.256ZM59.9648 69.16C61.2448 69.16 62.2901 68.7333 63.1008 67.88C63.9328 67.0053 64.3488 65.8427 64.3488 64.392C64.3488 62.9413 63.9328 61.7893 63.1008 60.936C62.2901 60.0613 61.2448 59.624 59.9648 59.624C58.6848 59.624 57.6288 60.0613 56.7968 60.936C55.9648 61.7893 55.5488 62.9413 55.5488 64.392C55.5488 65.8427 55.9648 67.0053 56.7968 67.88C57.6288 68.7333 58.6848 69.16 59.9648 69.16ZM77.5095 58.056C78.1068 57.224 78.9068 56.5947 79.9095 56.168C80.9335 55.7413 82.1068 55.528 83.4295 55.528V60.136C82.8748 60.0933 82.5015 60.072 82.3095 60.072C80.8802 60.072 79.7602 60.4773 78.9495 61.288C78.1388 62.0773 77.7335 63.272 77.7335 64.872V73H72.7415V55.784H77.5095V58.056ZM93.7898 66.248L91.3898 68.616V73H86.3978V49.256H91.3898V62.696L98.6858 55.784H104.638L97.4698 63.08L105.278 73H99.2298L93.7898 66.248ZM112.752 73.256C111.323 73.256 109.926 73.0853 108.56 72.744C107.195 72.3813 106.107 71.9333 105.296 71.4L106.96 67.816C107.728 68.3067 108.656 68.712 109.744 69.032C110.832 69.3307 111.899 69.48 112.944 69.48C115.056 69.48 116.112 68.9573 116.112 67.912C116.112 67.4213 115.824 67.0693 115.248 66.856C114.672 66.6427 113.787 66.4613 112.592 66.312C111.184 66.0987 110.022 65.8533 109.104 65.576C108.187 65.2987 107.387 64.808 106.704 64.104C106.043 63.4 105.712 62.3973 105.712 61.096C105.712 60.008 106.022 59.048 106.64 58.216C107.28 57.3627 108.198 56.7013 109.392 56.232C110.608 55.7627 112.038 55.528 113.68 55.528C114.896 55.528 116.102 55.6667 117.296 55.944C118.512 56.2 119.515 56.5627 120.304 57.032L118.64 60.584C117.126 59.7307 115.472 59.304 113.68 59.304C112.614 59.304 111.814 59.4533 111.28 59.752C110.747 60.0507 110.48 60.4347 110.48 60.904C110.48 61.4373 110.768 61.8107 111.344 62.024C111.92 62.2373 112.838 62.44 114.096 62.632C115.504 62.8667 116.656 63.1227 117.552 63.4C118.448 63.656 119.227 64.136 119.888 64.84C120.55 65.544 120.88 66.5253 120.88 67.784C120.88 68.8507 120.56 69.8 119.92 70.632C119.28 71.464 118.342 72.1147 117.104 72.584C115.888 73.032 114.438 73.256 112.752 73.256ZM128.163 65.224C128.163 64.1147 128.408 63.1973 128.899 62.472C129.411 61.7467 130.147 60.9467 131.107 60.072C131.811 59.432 132.323 58.8987 132.643 58.472C132.984 58.024 133.155 57.5227 133.155 56.968C133.155 56.1787 132.835 55.56 132.195 55.112C131.576 54.6427 130.744 54.408 129.699 54.408C128.696 54.408 127.8 54.6213 127.011 55.048C126.243 55.4533 125.592 56.0293 125.059 56.776L121.187 54.504C122.083 53.1387 123.288 52.0827 124.803 51.336C126.339 50.5893 128.152 50.216 130.243 50.216C132.696 50.216 134.659 50.7387 136.131 51.784C137.624 52.8293 138.371 54.28 138.371 56.136C138.371 57.0107 138.221 57.7787 137.923 58.44C137.645 59.1013 137.293 59.6667 136.867 60.136C136.461 60.584 135.928 61.1067 135.267 61.704C134.477 62.408 133.901 63.0053 133.539 63.496C133.176 63.9653 132.995 64.5413 132.995 65.224H128.163ZM130.595 73.256C129.72 73.256 128.984 72.9787 128.387 72.424C127.811 71.848 127.523 71.1547 127.523 70.344C127.523 69.5333 127.811 68.8613 128.387 68.328C128.963 67.7733 129.699 67.496 130.595 67.496C131.491 67.496 132.227 67.7733 132.803 68.328C133.379 68.8613 133.667 69.5333 133.667 70.344C133.667 71.1547 133.368 71.848 132.771 72.424C132.195 72.9787 131.469 73.256 130.595 73.256Z" fill="#15BE30"/>
</svg>
