<?xml version="1.0"?>
<svg xmlns="http://www.w3.org/2000/svg" height="512px" viewBox="0 -2 374.00186 374" width="512px"><g><path d="m218.542969 144.386719h37.695312c-6.75-6.265625-11.886719-14.066407-14.980469-22.738281-6.089843 8.929687-13.792968 16.640624-22.714843 22.738281zm0 0" data-original="#000000" class="active-path" data-old_color="#000000" fill="#000000"/><path d="m296.765625 160.550781c-1.40625 0-2.796875-.164062-4.175781-.164062h-189.753906c-13.636719-.019531-24.730469 10.972656-24.835938 24.609375v161.128906c0 13.59375 11.246094 24.261719 24.835938 24.261719h246.914062c6.453125.066406 12.660156-2.46875 17.222656-7.035157 4.5625-4.5625 7.09375-10.773437 7.027344-17.226562v-161.128906c.082031-6.488282-2.4375-12.742188-6.992188-17.363282-4.554687-4.621093-10.769531-7.230468-17.257812-7.246093h-48.808594c-1.378906 0-2.769531.164062-4.175781.164062zm0 0" data-original="#000000" class="active-path" data-old_color="#000000" fill="#000000"/><path d="m296.765625 58.40625c-23.070313.011719-42.035156 18.203125-43.003906 41.253906-.972657 23.050782 16.390625 42.773438 39.378906 44.726563h7.253906c22.988281-1.953125 40.351563-21.675781 39.378907-44.726563-.972657-23.050781-19.933594-41.242187-43.007813-41.253906zm0 0" data-original="#000000" class="active-path" data-old_color="#000000" fill="#000000"/><path d="m62 299.234375v-66.820313l-62-34.980468v136.78125zm0 0" data-original="#000000" class="active-path" data-old_color="#000000" fill="#000000"/><path d="m240.683594 71.921875c0 39.71875-32.199219 71.917969-71.917969 71.917969s-71.917969-32.199219-71.917969-71.917969c0-39.722656 32.199219-71.921875 71.917969-71.921875s71.917969 32.199219 71.917969 71.921875zm0 0" data-original="#000000" class="active-path" data-old_color="#000000" fill="#000000"/></g> </svg>
